<svg width="40" height="40" viewBox="0 0 40 40" fill="none" xmlns="http://www.w3.org/2000/svg">
<path d="M20 29.1667C22.0833 29.1667 23.8545 28.4378 25.3133 26.98C26.7722 25.5222 27.5011 23.7511 27.5 21.6667C27.5 19.5833 26.7706 17.8122 25.3117 16.3533C23.8528 14.8944 22.0822 14.1656 20 14.1667C17.9167 14.1667 16.1456 14.8961 14.6867 16.355C13.2278 17.8139 12.4989 19.5844 12.5 21.6667C12.5 23.75 13.2295 25.5211 14.6883 26.98C16.1472 28.4389 17.9178 29.1678 20 29.1667ZM6.66668 35C5.75001 35 4.96501 34.6739 4.31168 34.0217C3.65835 33.3694 3.33224 32.5844 3.33335 31.6667V11.6667C3.33335 10.75 3.66001 9.965 4.31335 9.31167C4.96668 8.65833 5.75112 8.33222 6.66668 8.33333H11.9167L14 6.08333C14.3056 5.72222 14.6739 5.45167 15.105 5.27167C15.5361 5.09167 15.9872 5.00111 16.4583 5H23.5417C24.0139 5 24.4656 5.09056 24.8967 5.27167C25.3278 5.45278 25.6956 5.72333 26 6.08333L28.0833 8.33333H33.3333C34.25 8.33333 35.035 8.66 35.6883 9.31333C36.3417 9.96667 36.6678 10.7511 36.6667 11.6667V31.6667C36.6667 32.5833 36.34 33.3683 35.6867 34.0217C35.0333 34.675 34.2489 35.0011 33.3333 35H6.66668Z" fill="black"/>
</svg>
