<svg width="40" height="40" viewBox="0 0 40 40" fill="none" xmlns="http://www.w3.org/2000/svg">
<path d="M18.3333 21.6667V5H21.6667V21.6667H18.3333ZM20 35C17.9444 35 16.0067 34.6039 14.1867 33.8117C12.3667 33.0194 10.7767 31.9433 9.41667 30.5833C8.05556 29.2222 6.97889 27.6317 6.18667 25.8117C5.39445 23.9917 4.99889 22.0544 5 20C5 17.7778 5.45834 15.6806 6.375 13.7083C7.29167 11.7361 8.58334 10.0278 10.25 8.58333L12.6667 11C11.2778 12.0556 10.2083 13.375 9.45834 14.9583C8.70834 16.5417 8.33334 18.2222 8.33334 20C8.33334 23.2222 9.47223 25.9722 11.75 28.25C14.0278 30.5278 16.7778 31.6667 20 31.6667C23.25 31.6667 26.0072 30.5278 28.2717 28.25C30.5361 25.9722 31.6678 23.2222 31.6667 20C31.6667 18.2222 31.2983 16.5417 30.5617 14.9583C29.825 13.375 28.7489 12.0556 27.3333 11L29.75 8.58333C31.4167 10.0278 32.7083 11.7361 33.625 13.7083C34.5417 15.6806 35 17.7778 35 20C35 22.0556 34.6039 23.9933 33.8117 25.8133C33.0194 27.6333 31.9506 29.2233 30.605 30.5833C29.2572 31.9444 27.6739 33.0211 25.855 33.8133C24.0361 34.6056 22.0844 35.0011 20 35Z" fill="black"/>
</svg>
