<svg width="40" height="40" viewBox="0 0 40 40" fill="none" xmlns="http://www.w3.org/2000/svg">
<path d="M30.6833 6.66669L26.6667 10.6834V10.9834L30.6833 15H36.6667V18.3334H29.3167L26.6667 15.6834V20H25C24.1159 20 23.2681 19.6488 22.643 19.0237C22.0179 18.3986 21.6667 17.5507 21.6667 16.6667V12.5H16.4333C16.2833 13.1167 16.0333 13.7 15.7 14.25L25.3 31.6667H33.3333C34.2174 31.6667 35.0652 32.0179 35.6904 32.643C36.3155 33.2681 36.6667 34.116 36.6667 35V36.6667H3.33333V35C3.33333 34.116 3.68452 33.2681 4.30964 32.643C4.93476 32.0179 5.78261 31.6667 6.66666 31.6667H17.6833L9.86666 17.5C8.40718 17.4753 6.99601 16.973 5.84917 16.07C4.70233 15.167 3.88302 13.913 3.51666 12.5C3.299 11.6508 3.25098 10.767 3.37534 9.89913C3.4997 9.0313 3.79401 8.19653 4.24142 7.4426C4.68882 6.68867 5.28054 6.03039 5.98268 5.50544C6.68483 4.98049 7.48362 4.59918 8.33333 4.38335C11.8833 3.46669 15.5167 5.60002 16.4333 9.16669H21.6667V5.00002C21.6667 4.11597 22.0179 3.26812 22.643 2.643C23.2681 2.01788 24.1159 1.66669 25 1.66669H26.6667V5.98335L29.3167 3.33335H36.6667V6.66669H30.6833ZM10 7.50002C9.11594 7.50002 8.2681 7.85121 7.64297 8.47633C7.01785 9.10145 6.66666 9.9493 6.66666 10.8334C6.66666 11.7174 7.01785 12.5653 7.64297 13.1904C8.2681 13.8155 9.11594 14.1667 10 14.1667C10.8841 14.1667 11.7319 13.8155 12.357 13.1904C12.9821 12.5653 13.3333 11.7174 13.3333 10.8334C13.3333 9.9493 12.9821 9.10145 12.357 8.47633C11.7319 7.85121 10.8841 7.50002 10 7.50002Z" fill="black"/>
</svg>
